<svg id="Layer_1" data-name="Layer 1" xmlns="http://www.w3.org/2000/svg" viewBox="0 0 307.88 292.07"><title>beaker</title><path d="M310.13,468V444.15h21V433.52H310.27V408.15h27.2V397.22H310.19V372.74h21V361.91H310.31V337.22h27.08V326.39H310.33V301.51h21.09V291H310.35V266.23h27.31V255.72H301v212.2c-31.41,5.57-44.06-14.17-45-35.74-.6-14.49-.79-29-1.2-43.48-.08-3-.35-5.94-.58-9.58h-5.61c-13.17,0-26.33.05-39.5,0s-22-8.25-23.31-21.21q-6.78-68.37-13.6-136.73c-1.25-12.5,9.41-24.43,21.76-24.38,93.32.4,186.64.22,280,.22h6.06c-1.4,2-2.32,3.38-3.35,4.71-13.7,17.62-27.5,35.17-41,52.93a16.57,16.57,0,0,0-3.26,9q-2.52,82.95-4.61,165.9c-.28,10.42-2.37,20.18-9.25,28.39-5.38,6.42-12.13,10.6-20.66,10.64-28.83.13-57.65,0-86.48,0A5.16,5.16,0,0,1,310.13,468ZM253.92,357.37c-1.38-46.85-2.73-92.72-4.09-139H194.29c0,1.73-.11,3.06,0,4.37q3.38,34.78,6.82,69.56c2,20.36,4.05,40.73,6,61.1.27,2.89,1.34,4.09,4.35,4,5-.2,10-.05,15-.05Z" transform="translate(-172.18 -176.81)"/><path d="M261.25,191.88c5.92-1.36,11.85-2.71,17.77-4.09,13.76-3.19,27.64-5.95,41.22-9.76,8.66-2.43,16.68-.75,25,.82,22.38,4.21,44.79,8.24,67.18,12.37a8.94,8.94,0,0,1,4.13,1.83H261.41Z" transform="translate(-172.18 -176.81)"/></svg>