<svg id="Layer_1" data-name="Layer 1" xmlns="http://www.w3.org/2000/svg" viewBox="0 0 436.28 300.17"><title>book</title><path d="M121,379.11q0-63,0-126c0-2.45.23-4.51,2.4-6.05.82-.58,1.43-1.27,2.57-1.09a17.35,17.35,0,0,0,2.5,0q83,0,166,0c8.84,0,16.72,3.47,24.16,8,.66.4,1.53.56,2,1.1,1,1.11,1.65.8,2.85,0a60.45,60.45,0,0,1,8.57-4.62,55.92,55.92,0,0,1,11.48-3.76,57.78,57.78,0,0,1,12.13-.76q80-.09,160,0c1.71,0,3.48-.56,5.09,1a7.12,7.12,0,0,1,2.37,5.58c-.09,29.49-.06,59-.06,88.49q0,81.48,0,163c0,1.84.82,3.88-1.06,5.56a9.72,9.72,0,0,1-7.06,2.36q-76-.07-152,0c-5.16,0-10.35.25-15.49-.08-4.17-.27-7.48,1.69-10.41,3.84a21,21,0,0,0-8.12,13.08A43.43,43.43,0,0,0,328,536a6.58,6.58,0,0,1-.9,3.65c-2,3.16-3.59,4.16-7.11,3.39-1.48-.32-3.84-3.56-4-5.56-.08-1.16,0-2.34,0-3.5-.23-7.42-3.09-13.75-9-18.21a16.85,16.85,0,0,0-10.41-3.81q-83.73.18-167.48.12c-2.7,0-5.07-.4-7-2.4a2.86,2.86,0,0,1-1.14-2.55,21.43,21.43,0,0,0,0-3Zm17-.09V490c0,1.17.05,2.34,0,3.5-.06,1,.12,1.58,1.29,1.52,1.33-.06,2.67,0,4,0q75.22,0,150.46-.05a33.1,33.1,0,0,1,10.06,1.14c3.21,1,6.62,1.85,9.18,4.37a15.08,15.08,0,0,0,1.76,1.3c.08-.79.21-1.59.25-2.39s0-1.66,0-2.5V286.43a44.07,44.07,0,0,0-.85-9.12,15.1,15.1,0,0,0-4.95-8.4,23.69,23.69,0,0,0-15.5-5.9q-75.72,0-151.46,0c-.83,0-1.67.05-2.5,0-1.15-.08-1.92.09-1.76,1.56a34,34,0,0,1,0,3.5Zm368,0V268c0-1.17-.05-2.34,0-3.5.05-1-.11-1.59-1.29-1.53-1.33.06-2.66,0-4,0q-73.49,0-147-.06c-4.41,0-8.68.33-12.64,2.13-3.2,1.46-6.16,3.09-8.4,6.39a20.53,20.53,0,0,0-3.7,12q-.06,107,0,214c0,1,0,2,0,3a8.35,8.35,0,0,0,.28,1.39,3.75,3.75,0,0,0,1-.65A10.78,10.78,0,0,1,335,498c4.09-1.67,8.24-3,12.75-3q76.48,0,153,0c1,0,2-.07,3,0,1.56.14,2.67,0,2.28-2.07a16.55,16.55,0,0,1,0-3Z" transform="translate(-86.85 -245.94)"/><path d="M206.07,546c-23,0-46-.16-69,.11a161,161,0,0,1-18.56-1.31,34,34,0,0,1-18.12-8,36.2,36.2,0,0,1-9.33-11.61A28.32,28.32,0,0,1,88,512.51q.06-42,0-84c-2-11.82-.74-23.72-1-35.58s0-23.66,0-35.49v-36c0-11.83.12-23.67-.07-35.49A16.49,16.49,0,0,1,90,275.74c2.13-2.95,9.19-5.63,13.17-4.26a14.39,14.39,0,0,1,9.85,13.82q-.14,75.22,0,150.46c0,5.85,1.18,11.67,1,17.58s0,11.67,0,17.5v18c0,5.84,0,11.67,0,17.5,0,1.78,2,9.07,3.08,10.2a13.15,13.15,0,0,0,6.55,3.43,12.42,12.42,0,0,0,3,0q75.24,0,150.46,0c1.89,0,3.72.24,5.66-.86s4.05.27,6,.91c4,1.3,7.1,3.46,8.67,7.78,1.86,5.12-.12,12.09-4.58,15.24a16.35,16.35,0,0,1-9.79,2.93Q244.56,546,206.07,546Z" transform="translate(-86.85 -245.94)"/><path d="M221.25,483c-20.48,0-41-.09-61.45.1a12.49,12.49,0,0,1-7.45-2.51c-1.91-1.35-3-3.93-3.33-6.5a18.93,18.93,0,0,1,0-2.5c0-27.81.06-55.62-.09-83.43a15.1,15.1,0,0,1,2.21-7.6c1.24-2.21,4.09-2.72,6.45-3.51a9.86,9.86,0,0,1,3-.05h121.9c2.1,0,4.15,0,6.08,1a9.75,9.75,0,0,1,5.45,9.15c0,28.47,0,56.95.07,85.43a10.62,10.62,0,0,1-10.85,10.48C262.55,482.89,241.9,483,221.25,483Zm.48-96h-60c-2.72,0-2.75,0-2.75,2.54v81a4,4,0,0,1,0,.49c-.21,1.41.16,2.07,1.81,2,4.66-.11,9.33-.2,14,0,2.58.12,1.22-.95,1.33-2.23.43-5.12-1.38-10-1.16-15.09a84,84,0,0,0,0-11,7.72,7.72,0,0,1,3.44-7.6,30.74,30.74,0,0,0,2.73-1.81c.62-.56,2.44,0,1.83-1.58a4.18,4.18,0,0,0-2.1-1.71c-.54-.26-1.45.19-1.94-.11-.75-.46-1.76-1.29-1.75-2a2.66,2.66,0,0,1,1.78-1.88,7.4,7.4,0,0,1,3.21.56,10.76,10.76,0,0,1,2.06,1c1.22.68,1.7.33,1.85-1.05a18.08,18.08,0,0,1,.94-2.6c.28-.95,1-2.31.56-2.86-1.57-2.22,0-4,.52-5.87s1.08-3.75,3.51-4.57c1.37-.46,2.4-2.19,3.39-3.49.43-.57.14-1.69.58-2.23,2.22-2.67,5.33-4.47,7.34-7.38.37-.54.86-1.26,1.41-1.37,1.67-.34,3.11-2.59,5.19-.47.53.53,2.47.42,3.21-.14,2.4-1.8,4,.11,5.47,1.14a8,8,0,0,1,3.06,3.67c.45,1.08,2.62,1.41,3.93,2.22.69.42,1.61,1.08,1.72,1.75.69,4.14,5.15,5.23,6.75,8.62.74,1.56,1.65.42,2-.3,1.51-2.7,3-5.42,4.25-8.23a21.73,21.73,0,0,1,5.7-7.62c3.27-2.81,10.52-3.46,13.21,1.53,1.23,2.27,2.67,4.62,2.24,7.59-.34,2.29.05,4.67-.1,7-.23,3.7-.24,7.48-1.09,11.05-.69,2.89-1.18,5.82-1.89,8.7s-1.42,6.06-2.39,9c-.23.69-.47.92.12,1.45,1.88,1.72,2.08,3.55,1.45,6.18-.73,3,0,6.29-.21,9.45s-1.31,6.29-1,9.59c.24,2.48.07,2.53,2.29,2.53q11.75,0,23.49,0c2.23,0,2.26,0,2.26-2.52V391c0-.83-.05-1.67,0-2.5.08-1-.14-1.58-1.3-1.51-1,.06-2,0-3,0Zm-5.19,86c11.16,0,22.32,0,33.47,0,1.4,0,2.1-.18,2-1.84-.14-3-.75-6.22.13-8.93,1.18-3.61.49-7.11.83-10.64.24-2.5-.9-.9-1.76-.65-2.53.75-5.1,1.36-7.66,2-1.72-1.66-4.37-.64-6.12-2.08s-3-.92-4.82-.18a50.1,50.1,0,0,1-8.07,2.21c-.5.12-1.14-.38-1.72-.6-4.13-1.57-8.33-2.15-12.5-.32a9.72,9.72,0,0,1-9.84-.88,8.35,8.35,0,0,0-8.61-.2,11.67,11.67,0,0,1-10.64.05c-2.28-1-2.79-.87-2.16,1.59a43.64,43.64,0,0,1,.9,10.6c0,2-.09,4,0,6,.16,2.92,1.14,3.8,4,3.81Zm40.72-60.81-.26,0c0-2.17.08-4.34,0-6.5a5.54,5.54,0,0,0-4-5.24c-1.07-.39-2.91.21-4.48,1.62-.25.23-.47.48-.71.71-5.13,4.9-7.45,11.53-10.71,17.56-1.24,2.29-2,4.86-3.1,7.21-1.42,2.92-3.41,5.62-4.47,8.64-1.12,3.21-1.37,6.71-3.45,9.59a1.37,1.37,0,0,0,0,1c.11.44.38,1.23.5,1.21,1.57-.21,3.29.78,4.72-.65a3.65,3.65,0,0,1,2-1.23c2.55-.1,5.24-.52,7.49,1.15,3.57,2.67,6.93,2.34,10.47-.15A3.62,3.62,0,0,0,253,443.5c-.15-2.33-.69-4.92.1-6.94,1.5-3.86,2-7.88,2.78-11.83C256.71,420.62,256.84,416.38,257.26,412.19ZM230,419.42c.85-2.54-1-4.23-3-5.84-.45-.38-1.23-.37-1.66-.76s-1.28-1.24-1.32-1.91c-.19-3.35-3-4-5.23-4.78-1.31-.45-1.78-.59-1.89-2-.24-3.24-2-4.09-4.31-2.12-1.26,1-1.87,1.21-3.21.06-2.34-2-4-1.17-4.42,2a2.09,2.09,0,0,0,0,.5c.13,1-.15,1.45-1.29,1.55a8.55,8.55,0,0,0-3.07,1c-1.49.78-2.71,3.36-2.41,4.7.54,2.36.28,3.24-1.52,3.18-2.37-.07-3.5,1.23-4.73,2.83a4.33,4.33,0,0,0,.08,5.63c.71,1,.9,1.42-.1,2.22a7.12,7.12,0,0,0-1.9,2.19c-.26.48.06,1.26.12,1.9a10.51,10.51,0,0,1,1.45-.67c4.88-1.46,4.89-1.47,9.23,1a24.53,24.53,0,0,1,2.67,2c.36.28.71.59,1.06.88a4.2,4.2,0,0,0,.39-1.33,6.35,6.35,0,0,1,2.46-5.46c1.48-1.21,1.54-2.15,0-3.21a4.89,4.89,0,0,1-1.86-4.81c.28-2.33,2.29-3.6,4.59-4.09,1.06-.23,2.21-.47,3.19-.63,2.66-.41,5.12-1.76,8-1.46,2.2.24,2.89,2,4.2,3.15,1,.84.5,1.89,0,3.05-1,2.21-.66,2.73,1.32,3.88a8.84,8.84,0,0,0,1.62.89c.9.3,1.62.14,1.58-1.06C230,421.17,230,420.5,230,419.42Zm-22.2,22.49.2,0c0,1.82,0,3.65.05,5.48,0,.21.74.48,1.17.54.23,0,.74-.29.75-.46.05-1.66.08-3.33,0-5,0-1.33.38-1.78,1.72-1.33,3.44,1.17,3.72,1.12,7.75-.1a2,2,0,0,1,1.33.25.93.93,0,0,1,.19.86c-.22.33-.63.76-1,.77-2.32.07-4.65,0-7,.07-.28,0-.55.43-.83.66l.87.31c.28.12.55.26.83.39-.17.2-.33.55-.53.58-.49.09-1,0-1.49,0a2.82,2.82,0,0,0-.82.43c.22.18.44.51.66.52,1.17.06,2.33,0,3.49,0,1.77,0,3.7-.47,4.9,1.52.05.08,1.21-.21,1.3-.5.37-1.19.38-2.5.8-3.66a15.58,15.58,0,0,1,1.72-2.78c-1.2-.19-2.39-.41-3.59-.57-.49-.06-1,0-1.49,0a2.52,2.52,0,0,1-.81-.45c.22-.23.39-.56.65-.69.69-.32,1.49-.9,2.13-.78,3.17.56,4.59-1.41,5.07-3.85a6.7,6.7,0,0,1,1.69-3.33,2,2,0,0,0-.23-3,52.53,52.53,0,0,1-5.17-4.29c-1.89-2.07-3.91-1.85-6.16-1.08-1,.35-2.86.68-2.87,1.08-.12,2.88-2.36,4.41-3.69,6.5a3.34,3.34,0,0,0-.44,1.31C208.59,434.89,208.2,438.4,207.8,441.91Zm-28.72,2.4c0-.1,0,1.33.51,1.6,3.39,1.68,6.78,3.26,10.78,1.3a11.62,11.62,0,0,1,11.79.4,11.87,11.87,0,0,0,3.42,1.33c.39.09,1-.45,1.38-.84.08-.09-.34-1-.61-1.05-2.1-.36-2.3-1.76-2.39-3.55a13.19,13.19,0,0,0-4.9-9.92c-2.65-2.16-4.47-2.12-7.15,0a16.93,16.93,0,0,0-1.41,1.4c-1.47,1.49-2.91,2.82-5.23,3.09-1.45.17-2.73,1.43-4.18,1.86C179.28,440.49,178.88,441.65,179.08,444.31ZM211,419.72l.22-.72a10.41,10.41,0,0,0,2.37,0c2.56-.59,5.1-1.29,7.64-2a3.45,3.45,0,0,0,.79-.49c-.27-.17-.52-.45-.8-.48a5.27,5.27,0,0,0-2,0c-2.84.84-5.61,1.94-8.64,2-.2,0-.47.75-.53,1.17C210,419.34,210.66,419.55,211,419.72Z" transform="translate(-86.85 -245.94)"/><path d="M212.78,283h54.91c5.33,0,8.89,2.44,10.12,7.44a6,6,0,0,1-1.21,4.33c-2,2.6-4.46,4.31-8.18,4.3-30-.12-59.9,0-89.85-.11-2.69,0-5.37-.76-8.07-.92s-5.66-.08-8.48,0a6.73,6.73,0,0,0-3.26.58c-2.53,1.28-4.82-.4-7-1.42-2.92-1.34-3-4.51-3.3-6.89-.21-1.8,1.32-4.15,2.69-5.7,1.19-1.35,3.23-1.65,5.27-1.64C175.17,283,194,283,212.78,283Z" transform="translate(-86.85 -245.94)"/><path d="M225.91,313c19.33,0,38.67,0,58,0a8.23,8.23,0,0,1,6.67,3.19,1.71,1.71,0,0,1,.06,1.64A8.23,8.23,0,0,1,284,321c-10.66-.1-21.33,0-32,0q-40.74,0-81.49,0a18.39,18.39,0,0,1-6.11-1c-1.37-.47-2.26-1-2.42-2.51a3.13,3.13,0,0,1,1.84-3.58,11.21,11.21,0,0,1,5.1-1q27.24,0,54.49,0Z" transform="translate(-86.85 -245.94)"/><path d="M226,333c19.17,0,38.33.06,57.5-.06a8.72,8.72,0,0,1,7.14,3.27,1.68,1.68,0,0,1-.05,1.64,8.22,8.22,0,0,1-6.67,3.19c-13.33-.09-26.66,0-40,0q-36.75,0-73.49,0a19.6,19.6,0,0,1-6.1-1c-1.34-.43-2.23-1-2.37-2.56a3.14,3.14,0,0,1,1.5-3.38,9.89,9.89,0,0,1,5-1.13C187.67,333,206.83,333,226,333Z" transform="translate(-86.85 -245.94)"/><path d="M225.92,352c19.33,0,38.66,0,58,0a8.26,8.26,0,0,1,6.67,3.19,1.68,1.68,0,0,1,.05,1.64A8.2,8.2,0,0,1,284,360c-10.66-.1-21.33,0-32,0q-40.75,0-81.5,0a18.37,18.37,0,0,1-6.1-1c-1.37-.47-2.26-1-2.42-2.52a3.13,3.13,0,0,1,1.84-3.57,11.23,11.23,0,0,1,5.1-1q27.5,0,55,0Z" transform="translate(-86.85 -245.94)"/><path d="M152.86,332c1.87-.15,5.23,3.15,5.06,5.35a6.45,6.45,0,0,1-1.64,3.72,7,7,0,0,1-3.69,1.75c-1.67.28-4.47-2.8-4.59-4.68C147.83,335.39,150.36,332.2,152.86,332Z" transform="translate(-86.85 -245.94)"/><path d="M148,358.17c0-4.51,1.28-6.11,4.28-6.17,2.5-.05,5.51,2.49,5.71,4.83.16,1.89-3.15,5.27-5.37,5.09a7.11,7.11,0,0,1-3.74-1.67A3.86,3.86,0,0,1,148,358.17Z" transform="translate(-86.85 -245.94)"/><path d="M148,318.21c0-3.5,1.3-5.14,4.25-5.21,2.51-.06,5.51,2.45,5.75,4.79.19,1.92-3,5.07-5.33,5.21C150,323.17,148,321.16,148,318.21Z" transform="translate(-86.85 -245.94)"/><path d="M345,351.72c0-20.82.07-41.64-.08-62.46a14.84,14.84,0,0,1,2.15-7.63c1.31-2.32,4.1-2.68,6.4-3.6a5.68,5.68,0,0,1,2,0q63,0,125.92-.05a11.09,11.09,0,0,1,5.06,1.09,9.46,9.46,0,0,1,5.56,9Q492,352,492,416a9.8,9.8,0,0,1-10.18,10q-63.21,0-126.42,0A10.35,10.35,0,0,1,345,415.67C345.05,394.36,345,373,345,351.72ZM418.25,416h59c4.75,0,4.75,0,4.75-4.54q0-23.76,0-47.5c0-1.95-.23-3.9-.36-5.84-1.82,0-3.64-.11-5.45-.11-6.5,0-13,0-19.5,0a1.62,1.62,0,0,1-1.7-2.12c.29-1.3,1.24-.85,1.95-.85,7.67,0,15.33-.11,23,0,1.95,0,2.12-.63,2.11-2.27q-.07-31.25,0-62.5c0-2.26,0-2.29-2.49-2.29h-122c-2.45,0-2.49,0-2.49,2.29q0,30.75,0,61.5c0,1.65.16,2.31,2.11,2.27,7.84-.15,15.67,0,23.5-.09,1.63,0,1.4.92,1.43,1.91,0,1.29-.87,1.12-1.68,1.12-7.83,0-15.67.05-23.5,0-1.61,0-1.88.57-1.86,2,.07,6.33,0,12.67,0,19v34c0,4,0,4,4.25,4h59Z" transform="translate(-86.85 -245.94)"/><path d="M420.5,442c19,0,38,.06,57-.06a8.74,8.74,0,0,1,7.15,3.27,1.71,1.71,0,0,1-.06,1.64,8.21,8.21,0,0,1-6.67,3.19c-13.33-.09-26.67,0-40,0q-36.75,0-73.49,0a19.78,19.78,0,0,1-6.09-1c-1.35-.43-2.23-1-2.37-2.57a3.18,3.18,0,0,1,1.5-3.38,10,10,0,0,1,5.05-1.12C381.84,442,401.17,442,420.5,442Z" transform="translate(-86.85 -245.94)"/><path d="M401,470c-12.65,0-25.3-.05-38,0a8.12,8.12,0,0,1-6.31-2.87,2.21,2.21,0,0,1,0-3.4,7.89,7.89,0,0,1,5.85-2.8c25,0,49.94,0,74.92.06a8.64,8.64,0,0,1,6.82,2.79,2.34,2.34,0,0,1,0,3.43,7.52,7.52,0,0,1-6.37,2.83C425.6,469.9,413.28,470,401,470Z" transform="translate(-86.85 -245.94)"/><path d="M346.36,442c2.93,0,4.57,1.47,4.64,4.24.07,3.16-1.5,4.79-4.61,4.76-2.77,0-4.39-1.68-4.39-4.49S343.6,442,346.36,442Z" transform="translate(-86.85 -245.94)"/><path d="M352,465.26c.06,2.92-1.46,4.65-4.14,4.74-2.86.09-4.76-1.48-4.86-4-.13-3.21,1.4-5,4.39-5S351.94,462.49,352,465.26Z" transform="translate(-86.85 -245.94)"/><path d="M194.53,471c-3,0-6-.11-9,0-2,.1-1.49-1.19-1.56-2.26s0-1.84,1.5-1.82q9,.15,17.94,0c2,0,1.49,1.19,1.56,2.26s0,1.88-1.5,1.82C200.51,470.91,197.52,471,194.53,471Z" transform="translate(-86.85 -245.94)"/><path d="M192.13,463c-2,0-4,0-6,0-.85,0-2.09.56-2.15-1.14A2.46,2.46,0,0,1,186,459a4.77,4.77,0,0,1,1,0c3.67,0,7.33.06,11,0a2.72,2.72,0,0,1,2.54,1.13c.39.56.71,1.17,1.07,1.76-.68.39-1.34,1.06-2,1.1C197.13,463.08,194.62,463,192.13,463Z" transform="translate(-86.85 -245.94)"/><path d="M245.81,429a3.45,3.45,0,0,1-1.71-.48c-1.08-.9-1.71-.46-2.46.34a39.47,39.47,0,0,1-2.84,2.8,2,2,0,0,1-1.33.28c-.17,0-.41-.48-.46-.77-.42-2.73,2.17-6,4.87-6.15a23.1,23.1,0,0,1,3,0c2.55.2,4.79.05,5.72-3a1.39,1.39,0,0,1,2.37-.58,2.56,2.56,0,0,1,1,3.07C253.06,426.66,248.81,429,245.81,429Z" transform="translate(-86.85 -245.94)"/><path d="M242,442c-4.1-.17-4.08-.15-6.75,2.22a6.41,6.41,0,0,1-1.67.78,6,6,0,0,1-.55-1.71,5.71,5.71,0,0,1,5.22-5.28,18.78,18.78,0,0,1,3,0c2.49.3,4.42-.15,5.27-2.94.15-.51,1.31-1,2-1,.92.05,1.88,2.46,1.51,3.29C249,439.62,244.71,442.11,242,442Z" transform="translate(-86.85 -245.94)"/><path d="M242.82,418.12c-.54-.16-1.54-.22-1.65-.56a2.79,2.79,0,0,1,.14-2.27c1.61-1.78,3-4,6.09-3.33a4.71,4.71,0,0,0,5.16-2c.56-.79,1.28-1.55,2.39-.55s1.51,2.45.68,3.4c-1.49,1.72-3.2,3.12-5.65,3.17a12.5,12.5,0,0,0-1.5,0c-1.38.22-3.39-.95-3.77,1.69C244.68,417.91,243.55,418,242.82,418.12Z" transform="translate(-86.85 -245.94)"/><path d="M418.15,358c9.66,0,19.32,0,29,0,3.46,0,3.86.44,3.86,4q0,21.5,0,43c0,4.32-1.65,6-5.94,6q-26.49,0-53,0a9.08,9.08,0,0,1-3.65-.82c-1.88-.8-2.44-1.73-2.44-3.56q0-23.49,0-47c0-1.32.42-1.66,1.69-1.66C397.82,358,408,358,418.15,358Zm.54,11c-7.15,0-14.31,0-21.46,0-1.63,0-2.72.32-3.31,2.14a10.59,10.59,0,0,0-.95,3.6c.07,7.49,0,15,0,22.46,0,3.89,1.85,5.8,5.62,5.81q20,0,39.93,0c2.86,0,4.42-1.61,4.43-4.51q0-12.72,0-25.45c0-3.6-.38-4-3.83-4C432.34,369,425.52,369,418.69,369Zm-1.7-4c6.64,0,13.28,0,19.93,0a12.54,12.54,0,0,0,2.86-.32c.41-.1,1.05-.75,1-1a2.38,2.38,0,0,0-1-1.38,4.07,4.07,0,0,0-1.86-.28q-20.69,0-41.35,0c-1,0-1.53.14-1.54,1.3s.16,1.77,1.59,1.75C403.37,365,410.18,365,417,365Z" transform="translate(-86.85 -245.94)"/><path d="M418.29,356c-10.14,0-20.28,0-30.43,0-1.56,0-2-.49-1.89-2,.11-2.33,0-4.66,0-7,0-1.94,1.55-4.13,3.34-4,2.15.19,2.84-1.21,3.36-2.46s.92-1.71,2.3-1.69c5.32.09,10.64.11,16,0,1.37,0,2.86.59,2.8,1.43-.23,3.43,2.05,2.57,3.85,2.61,1.33,0,2.67,0,4,0,1.08.05,1.42-.37,1.41-1.42,0-2.18,1.36-2.64,3.25-2.62,4.66.06,9.31,0,14,0,1.1,0,2.43-.43,3.1.88.38.75,2.53,1,.82,2.45.3.22.58.59.91.63.82.09,1.66,0,2.49,0,1.57.16,3.42,2,3.41,3.49,0,3.11-.2,6.22-.31,9.33-2.64.06-5.28.15-7.92.15Q430.52,356,418.29,356ZM441,350.37c0-1.51-1.22-3.38-2.16-3a6.88,6.88,0,0,0-2.77,2.69c-.42.66,1.32,1.81,2.85,1.91C440.17,352.09,441.35,352.13,441,350.37Zm-22.36-3.44c-1,.81-2.2,1.29-2.56,2.11-.59,1.36.75,2.8,2.27,3s2.64-.94,2.5-1.7C420.62,349.09,419.43,348.05,418.64,346.93Zm-11.19-.1a20.11,20.11,0,0,0-2.39,3.2c-.4.85,1.61,2.36,2.75,1.9.87-.36,2.2-1.65,2.05-2.05C409.45,348.77,408.37,347.92,407.45,346.83Zm21.25,5.77c.95-1.07,2.32-2.07,2.16-2.55-.38-1.12-1.48-2-2.3-3a18.69,18.69,0,0,0-2.43,3.32C426,350.63,427.59,351.66,428.7,352.6ZM400,349.92c.21-1.29-.09-2-1.76-2-2.23.11-2.17,0-2.26,2-.07,1.36.1,2.13,1.78,2C400,351.93,400,352.05,400,349.92Z" transform="translate(-86.85 -245.94)"/><path d="M436,329.5c.34,3.21-2.57,4.89-3.53,7.49,0,.06-.32,0-.48,0-1.45-.15-3.54-3.13-2.95-4.44a14.79,14.79,0,0,1,2.06-3.12c.9-1.12,2.41-1.87,1.94-3.72,0,0,.67-.4.83-.3A4.34,4.34,0,0,1,436,329.5Z" transform="translate(-86.85 -245.94)"/><path d="M439.21,333.06a13.22,13.22,0,0,1-1.26,3.07,5.85,5.85,0,0,1-2.51,1.77c-.54.2-.61-1.89.15-3,.54-.77,1.71-1.15,1.47-2.43a2,2,0,0,1,1.22-.44C438.61,332.11,438.85,332.64,439.21,333.06Z" transform="translate(-86.85 -245.94)"/><path d="M418.24,400H398.78c-2.76,0-2.76,0-2.78-3a21.13,21.13,0,0,0,0-4c-.68-3.36,1.28-5.49,3.62-6.94,6.7-4.17,13.06-8.77,19.4-13.45a6.92,6.92,0,0,1,4.3-1.66c5.32.12,10.65.06,16,0,1.14,0,1.8.09,1.79,1.56q-.12,13,0,26c0,1.54-.75,1.51-1.83,1.51C432.22,400,425.23,400,418.24,400Z" transform="translate(-86.85 -245.94)"/><path d="M411.91,371c1,0,1.51,0,2,0a4.88,4.88,0,0,1,.87.28,3.61,3.61,0,0,1-.66,1c-1.36,1.09-2.73,2.18-4.17,3.18-4.25,3-8.54,5.9-12.83,8.82a2.84,2.84,0,0,1-1.05.24,24.17,24.17,0,0,0-.1-2.95c-.2-1.37.95-1.25,1.56-1.83,3.15-3,7.06-4.83,10.42-7.43A5.77,5.77,0,0,1,411.91,371Z" transform="translate(-86.85 -245.94)"/></svg>