<svg id="Layer_1" data-name="Layer 1" xmlns="http://www.w3.org/2000/svg" viewBox="0 0 266.82 431.01"><title>medal</title><path d="M421,167l16.78,1.4L368,304.23c11.46,11.7,11,26.29,9.48,40.83-.42,4.2.74,6.18,3.82,8.49,78.35,58.85,69.07,182.67-17.12,229-73.72,39.66-165.4-.51-188-82.41-15.73-56.89,4.93-115.64,52.79-149.75,2.61-1.86,3.32-3.59,3.36-6.85.1-8.76.14-17.7,1.93-26.21,2-9.59,8.68-15.77,18.59-18.21,1.82-.45,3.77-2.45,4.67-4.23Q289.87,231,322,167h16l16.43,1.37a13.81,13.81,0,0,1-.66,2q-36.15,70.38-72.45,140.69c-.74,1.43-3.22,2.71-4.94,2.76-8.65.28-17.32.26-26,.07-3.83-.09-6.06,1.69-7.06,5-2.18,7.33-1.7,14.73-.31,22.7,19.78-10,40.26-15,62-14.66,21.86.33,42.29,6.1,62.58,17.13,0-8.06.57-15.05-.16-21.91-.75-7.05-2.82-8.23-9.92-8.23H331l74-147Zm9.26,295.65c-.44-5.81-.66-11.65-1.4-17.42A148.34,148.34,0,0,0,426,430C407.4,351.66,321.75,310,249.58,344.13c-62.49,29.58-90.71,106.19-62.87,170.66,25.41,58.84,86.46,89.49,147.74,74.16C389.77,575.11,429.92,522,430.26,462.65Z" transform="translate(-170.96 -167)"/><path d="M204,167q25.67,51,51.39,102c1.44,2.84,1.58,5,0,7.8-4.83,8.67-9.31,17.53-14.46,27.34L171.21,168.4,188,167Z" transform="translate(-170.96 -167)"/><path d="M290,167c3.29,6.53,6.69,13,9.79,19.62a6.56,6.56,0,0,1,.18,5c-4.91,9.79-10.1,19.44-15.53,29.79l-27.22-53L274,167Z" transform="translate(-170.96 -167)"/><path d="M184,467.3c.1-61.36,39-111.34,92.36-123.31,59.2-13.28,117.77,20,137.81,78.3,21,61.16-8.23,128.84-66.34,153.47-63.59,27-136-7.09-157.75-74.17C186,489,184,476,184,467.3Zm81.58-29.66c-6-8-8.72-17-10.24-26.48-.71-4.46,1.18-6.16,5.11-5.41a72.68,72.68,0,0,1,12.39,3.64c3.71,1.44,7.18,3.51,11.3,5.57-3.46-17.17,1.81-30.77,13.94-43.23,3,3.57,5.92,6.48,8.11,9.88,6.49,10.09,7.26,21.46,6.23,33.68,1.46-.78,2.26-1.31,3.14-1.67C322,411,328.3,407.81,335,406c5.67-1.56,7.46.25,6.07,5.81-2.23,8.88-5.34,17.53-7.92,25.79,9.25-.75,9.64-.29,7.32,10.54a17.81,17.81,0,0,1-.67,2.93c-2.58,6.33-5.21,12.63-7.86,19l2.17-.27c7.08-1,8.49,0,6.83,7-2,8.28-5.05,16.31-7.53,24.09,1.19,0,3.46-.43,5.43.15,1.27.38,3.09,2.33,3,3.43-1.66,19.27-11.1,37.58-34.12,42.67-2.05.46-4.12.78-6.1,1.14v31.63c2.93,0,5.6.31,8.18-.06,6.91-1,13.92-1.71,20.64-3.49,65.93-17.39,102.46-89.95,78.15-154.93-21.12-56.43-80-87.26-136-71.23-45,12.86-77.19,51.81-82.76,100.09S209.19,545.63,252,567.74a105.89,105.89,0,0,0,43.11,11.9V548.31c-.78-.21-1.39-.4-2-.52-21.43-4-33.21-15.72-37.43-37.35-1.85-9.51-1.32-10.11,8.31-9.3.21,0,.45-.33-.11.12-2.65-7.46-5.78-14.46-7.59-21.78-2.51-10.11-1.87-10.45,8.54-9.49.18,0,.39-.35.51-.46-1.85-3.4-3.93-6.64-5.41-10.13a66.13,66.13,0,0,1-3.5-10.92C253.85,437.24,254.09,437,265.59,437.64Zm68.13-24.53c-17.05.41-34.17,17.9-32.11,32.47C320.42,443.49,333.08,430.85,333.72,413.11Zm.06,94.89c-18.06,1.94-33.2,17.61-31.79,32.59C320.23,539.37,335,524.37,333.78,508Zm-38.26-62.38c-.33-16.89-15.5-32-32.13-32.5C261.84,429,276.11,443.52,295.52,445.62Zm.11,63.73c-1-17.46-17.18-33.31-32.51-32.14C263.09,494.14,277.05,508.09,295.63,509.35Zm-32.93-1.27c.23,17.72,14.84,32.24,32.13,32.32C295.64,525,280.16,509.23,262.7,508.08Zm38.65,1.46c19.73-2.62,34.82-18.32,31.81-32.8C315.24,478.86,301,493.39,301.35,509.54Zm-.16-32.34c18.92-1.3,35.25-18.2,31.92-32.68C314.58,447.44,301.71,460.47,301.19,477.2Zm-37.86-32.76c-1.15,16.89,16.11,34,32.2,32.28C294.89,460.33,282.21,447.51,263.33,444.44Zm34.79-63.39c-11.74,13.68-11.73,37.21-.25,45.73C309.58,414.23,309.79,395,298.12,381.05Zm.28,112.12,7-8.77H291.27ZM305,452.74H291.73c2.41,3.13,4.55,5.9,6.7,8.67Zm-6.58,72.88,6.34-9H292Z" transform="translate(-170.96 -167)"/><path d="M262.46,382.59a34.14,34.14,0,0,1-4.57-4.5c-.88-1.25-1-3-1.43-4.6,1.52.39,3.22.48,4.5,1.25a44.58,44.58,0,0,1,5.16,4.24,66,66,0,0,1,5.41-5.21c.77-.61,2.27-.28,3.44-.39,0,1.19.4,3-.17,3.44-2.72,1.89-3.61,7.5-8.93,4.57-.74-.41-2.33.72-3.52,1.13Z" transform="translate(-170.96 -167)"/><path d="M269.15,382.3c2.72,3.49,4.87,6.21,6.88,9a14.19,14.19,0,0,1-2.18,1.83,94,94,0,0,1-6.94-7.32C266.71,385.62,267.92,384.22,269.15,382.3Z" transform="translate(-170.96 -167)"/><path d="M262.35,382.52c.69,1.61,2.39,4,1.87,4.69-1.86,2.36-4.47,4.13-6.8,6.12-.44-1.34-1.67-3.24-1.19-3.92a70.22,70.22,0,0,1,6.25-6.8Z" transform="translate(-170.96 -167)"/><path d="M360.93,427.53c-1.88,1.09-3.52,2.38-3.79,2.14a61.1,61.1,0,0,1-5.08-5.45c.88-.75,2.33-2.3,2.55-2.14A82.62,82.62,0,0,1,360.93,427.53Z" transform="translate(-170.96 -167)"/><path d="M373.64,424.76c-3,2.06-4.92,3.56-7.06,4.75-.26.14-1.45-1.4-2.22-2.15a72.15,72.15,0,0,1,5.43-5.22C370.05,421.94,371.57,423.32,373.64,424.76Z" transform="translate(-170.96 -167)"/><path d="M360.26,437.73c-2.61,2.06-4.42,3.6-6.39,4.89a8.42,8.42,0,0,1-2-2.14,37.27,37.27,0,0,1,4.88-5.24C356.93,435.07,358.5,436.47,360.26,437.73Z" transform="translate(-170.96 -167)"/><path d="M364.47,438.1c2-1.21,3.55-2.51,3.83-2.27a30,30,0,0,1,4.43,4.84c.06.08-1.93,2.15-2.19,2A67.13,67.13,0,0,1,364.47,438.1Z" transform="translate(-170.96 -167)"/></svg>